<?xml version="1.0" encoding="iso-8859-1"?>
<!-- Generator: Adobe Illustrator 25.1.0, SVG Export Plug-In . SVG Version: 6.00 Build 0)  -->
<svg version="1.1" id="Layer_1" xmlns="http://www.w3.org/2000/svg" xmlns:xlink="http://www.w3.org/1999/xlink" x="0px" y="0px"
	 width="50px" height="50px" viewBox="0 0 596.571 720" enable-background="new 0 0 596.571 720" xml:space="preserve">
<g>
	<path fill="#dd643f" d="M442.722,297.504c-24.428-1.202-44.267-7.208-64.449-12.19c-0.117-1.596,35.106-68.74,57.047-111.346
		c74.447-144.561,155.824-168.39,83.466,13.197C512.882,201.982,486.861,299.675,442.722,297.504z M317.056,278.707
		c14.148,2.138-107.998-307.135-162.5-212.429c-29.333,50.971,31.175,118.022,55.291,170.249
		C259.474,344.003,216.9,263.576,317.056,278.707z M278.769,477.707c-17.161-44.359-71.544-150.592-128.287-140.457
		C13.16,379.311,335.157,623.466,278.769,477.707z M400.182,322.07c-27.693-4.382-129.646-24.444-137.848-5.542
		c-31.921,93.681,147.045,87.969,207.199,85.799c26.257-7.211,35.224,31.143,6.855,32.72
		c-85.764,12.344-205.63,88.4-137.693,184.074c20.115,18.972-6.227,48.883-23.059,25.423c-15.432-13.337-26.666-71.16-29.056-81.621
		c-3.058-13.388-22.218-8.363-37.531-7.217c-11.636,0.871-11.627,50.277-36.739,57.337
		c-67.774,19.056-138.401-21.568-143.818-94.951c-0.354-4.801-2.372-12.295,7.119-20.014c31.132-25.321,26.633,42.565,46.008,66.668
		c10.407,12.948,86.641,37.955,87.662,2.821c1.295-44.55-50.292-66.271-79.204-94.122c-8.258-7.955-15.987-22.279-29.376-21.958
		c-91.498,2.186-72.056,109.768-27.524,155.635l-0.065-0.098c65.413,70.139,196.337,98.24,290.365,68.121
		c36.108-11.566,76.08-34.586,108.69-56.683c61.624-41.758,98.054-127.255,84.097-216.731
		C548.551,352.297,424.856,325.973,400.182,322.07z M380.919,434.282c-14.326-1.244-77.573-15.043-98.713-22.509
		c15.461,22.173,27.67,43.69,31.967,71.756C333.107,461.941,356.491,448.412,380.919,434.282z"/>
	<path fill="#0D0D0E" d="M508.568,309.369c8.076-73.132,105.993-167.156,74.951-245.53
		c-60.513-152.78-190.805,126.949-230.341,198.074C301.345,186.345,232.761-95.841,131.909,40.838
		c-57.769,78.292,50.786,194.355,72.223,273.317c-78.374-40.661-133.741,37.059-119.74,106.508
		c-145.206,30.891-73.051,213.556,35.998,261.331c239.82,105.065,520.987-43.874,466.371-302.089
		C578.607,341.351,545.96,316.818,508.568,309.369z M435.32,173.969c74.447-144.561,155.824-168.39,83.466,13.197
		c-5.904,14.816-31.925,112.51-76.064,110.338c-24.428-1.202-44.267-7.208-64.449-12.19
		C378.156,283.718,413.378,216.574,435.32,173.969z M154.556,66.278c54.502-94.705,176.647,214.567,162.5,212.429
		c-100.156-15.131-57.582,65.296-107.209-42.18C185.731,184.3,125.224,117.249,154.556,66.278z M150.482,337.25
		c56.743-10.136,111.126,96.098,128.287,140.457C335.157,623.466,13.16,379.311,150.482,337.25z M282.206,411.773
		c21.14,7.466,84.387,21.265,98.713,22.509c-24.427,14.131-47.812,27.659-66.746,49.247
		C309.875,455.462,297.667,433.946,282.206,411.773z M472.166,618.461c-32.61,22.097-72.582,45.117-108.69,56.683
		c-94.028,30.119-224.952,2.019-290.365-68.121l0.065,0.098C28.644,561.254,9.202,453.673,100.7,451.487
		c13.39-0.32,21.119,14.004,29.376,21.958c28.913,27.85,80.499,49.572,79.204,94.122c-1.021,35.135-77.255,10.127-87.662-2.821
		c-19.374-24.104-14.876-91.989-46.008-66.668c-9.491,7.719-7.473,15.214-7.119,20.014c5.417,73.382,76.044,114.007,143.818,94.951
		c25.112-7.061,25.103-56.467,36.739-57.337c15.314-1.146,34.473-6.17,37.531,7.217c2.39,10.461,13.624,68.284,29.056,81.621
		c16.832,23.461,43.174-6.45,23.059-25.423c-67.937-95.675,51.928-171.73,137.693-184.074c28.369-1.577,19.402-39.931-6.855-32.72
		c-60.154,2.169-239.12,7.882-207.199-85.799c8.202-18.902,110.156,1.16,137.848,5.542c24.674,3.903,148.369,30.227,156.08,79.66
		C570.22,491.206,533.79,576.703,472.166,618.461z"/>
</g>
<g>
</g>
<g>
</g>
<g>
</g>
<g>
</g>
<g>
</g>
</svg>
